<svg width="93" height="42" viewBox="0 0 93 42" fill="none" xmlns="http://www.w3.org/2000/svg">
<path d="M1.032 38V29.684H6.048V30.68H2.196V33.188H5.616V34.172H2.196V38H1.032ZM20.729 33.836C20.729 33.124 20.833 32.496 21.041 31.952C21.257 31.408 21.545 30.956 21.905 30.596C22.273 30.228 22.697 29.952 23.177 29.768C23.665 29.584 24.181 29.492 24.725 29.492C25.261 29.492 25.765 29.584 26.237 29.768C26.717 29.952 27.137 30.228 27.497 30.596C27.857 30.956 28.141 31.408 28.349 31.952C28.565 32.496 28.673 33.124 28.673 33.836C28.673 34.548 28.565 35.176 28.349 35.72C28.141 36.264 27.857 36.72 27.497 37.088C27.137 37.448 26.717 37.72 26.237 37.904C25.765 38.088 25.261 38.18 24.725 38.18C24.181 38.18 23.665 38.088 23.177 37.904C22.697 37.72 22.273 37.448 21.905 37.088C21.545 36.72 21.257 36.264 21.041 35.72C20.833 35.176 20.729 34.548 20.729 33.836ZM21.953 33.836C21.953 34.34 22.017 34.8 22.145 35.216C22.273 35.624 22.453 35.972 22.685 36.26C22.925 36.548 23.213 36.772 23.549 36.932C23.893 37.084 24.277 37.16 24.701 37.16C25.125 37.16 25.505 37.084 25.841 36.932C26.177 36.772 26.461 36.548 26.693 36.26C26.933 35.972 27.117 35.624 27.245 35.216C27.373 34.8 27.437 34.34 27.437 33.836C27.437 33.332 27.373 32.876 27.245 32.468C27.117 32.052 26.933 31.7 26.693 31.412C26.461 31.124 26.177 30.904 25.841 30.752C25.505 30.592 25.125 30.512 24.701 30.512C24.277 30.512 23.893 30.592 23.549 30.752C23.213 30.904 22.925 31.124 22.685 31.412C22.453 31.7 22.273 32.052 22.145 32.468C22.017 32.876 21.953 33.332 21.953 33.836ZM48.2128 34.52C48.3408 34.68 48.5008 34.892 48.6928 35.156C48.8928 35.412 49.0968 35.7 49.3048 36.02C49.5128 36.332 49.7168 36.66 49.9168 37.004C50.1248 37.348 50.3008 37.68 50.4448 38H49.1728C49.0128 37.696 48.8368 37.388 48.6448 37.076C48.4608 36.764 48.2728 36.468 48.0808 36.188C47.8888 35.9 47.6968 35.632 47.5048 35.384C47.3208 35.136 47.1528 34.92 47.0008 34.736C46.8968 34.744 46.7888 34.748 46.6768 34.748C46.5728 34.748 46.4648 34.748 46.3528 34.748H45.3088V38H44.1448V29.804C44.4728 29.724 44.8368 29.672 45.2368 29.648C45.6448 29.616 46.0168 29.6 46.3528 29.6C47.5208 29.6 48.4088 29.82 49.0168 30.26C49.6328 30.7 49.9408 31.356 49.9408 32.228C49.9408 32.78 49.7928 33.252 49.4968 33.644C49.2088 34.036 48.7808 34.328 48.2128 34.52ZM46.4488 30.62C45.9528 30.62 45.5728 30.632 45.3088 30.656V33.788H46.1368C46.5368 33.788 46.8968 33.768 47.2168 33.728C47.5368 33.688 47.8048 33.612 48.0208 33.5C48.2448 33.388 48.4168 33.232 48.5368 33.032C48.6568 32.824 48.7168 32.552 48.7168 32.216C48.7168 31.904 48.6568 31.644 48.5368 31.436C48.4168 31.228 48.2528 31.064 48.0448 30.944C47.8448 30.824 47.6048 30.74 47.3248 30.692C47.0528 30.644 46.7608 30.62 46.4488 30.62ZM70.3788 33.908H71.5428V37.796C71.4468 37.828 71.3068 37.864 71.1228 37.904C70.9468 37.944 70.7388 37.984 70.4988 38.024C70.2668 38.064 70.0108 38.096 69.7308 38.12C69.4508 38.152 69.1668 38.168 68.8788 38.168C68.2948 38.168 67.7628 38.072 67.2828 37.88C66.8028 37.688 66.3908 37.408 66.0468 37.04C65.7028 36.672 65.4348 36.22 65.2428 35.684C65.0588 35.148 64.9668 34.532 64.9668 33.836C64.9668 33.14 65.0708 32.524 65.2788 31.988C65.4948 31.444 65.7828 30.988 66.1428 30.62C66.5028 30.252 66.9228 29.972 67.4028 29.78C67.8908 29.588 68.4108 29.492 68.9628 29.492C69.3388 29.492 69.6708 29.516 69.9588 29.564C70.2548 29.612 70.5068 29.668 70.7148 29.732C70.9228 29.796 71.0908 29.86 71.2188 29.924C71.3548 29.988 71.4468 30.036 71.4948 30.068L71.1228 31.04C70.8908 30.888 70.5828 30.764 70.1988 30.668C69.8148 30.564 69.4228 30.512 69.0228 30.512C68.5988 30.512 68.2108 30.588 67.8588 30.74C67.5148 30.892 67.2188 31.112 66.9708 31.4C66.7308 31.688 66.5428 32.04 66.4068 32.456C66.2708 32.864 66.2028 33.324 66.2028 33.836C66.2028 34.332 66.2588 34.784 66.3708 35.192C66.4908 35.6 66.6668 35.952 66.8988 36.248C67.1388 36.536 67.4308 36.76 67.7748 36.92C68.1268 37.08 68.5388 37.16 69.0108 37.16C69.3468 37.16 69.6308 37.144 69.8628 37.112C70.1028 37.072 70.2748 37.036 70.3788 37.004V33.908ZM87.1053 38V29.684H92.1813V30.68H88.2693V33.152H91.7493V34.124H88.2693V37.004H92.4813V38H87.1053Z" fill="white"/>
<path d="M17.9694 9.54C16.516 9.54 15.4627 9.94667 14.8094 10.76C14.1694 11.56 13.8494 12.66 13.8494 14.06C13.8494 14.74 13.9294 15.36 14.0894 15.92C14.2494 16.4667 14.4894 16.94 14.8094 17.34C15.1294 17.74 15.5294 18.0533 16.0094 18.28C16.4894 18.4933 17.0494 18.6 17.6894 18.6C18.036 18.6 18.3294 18.5933 18.5694 18.58C18.8227 18.5667 19.0427 18.54 19.2294 18.5V13.68H22.3494V20.54C21.976 20.6867 21.376 20.84 20.5494 21C19.7227 21.1733 18.7027 21.26 17.4894 21.26C16.4494 21.26 15.5027 21.1 14.6494 20.78C13.8094 20.46 13.0894 19.9933 12.4894 19.38C11.8894 18.7667 11.4227 18.0133 11.0894 17.12C10.7694 16.2267 10.6094 15.2067 10.6094 14.06C10.6094 12.9 10.7894 11.8733 11.1494 10.98C11.5094 10.0867 12.0027 9.33333 12.6294 8.72C13.256 8.09333 13.9894 7.62 14.8294 7.3C15.6827 6.98 16.5894 6.82 17.5494 6.82C18.2027 6.82 18.7894 6.86667 19.3094 6.96C19.8427 7.04 20.296 7.14 20.6694 7.26C21.056 7.36667 21.3694 7.48 21.6094 7.6C21.8627 7.72 22.0427 7.81333 22.1494 7.88L21.2494 10.38C20.8227 10.1533 20.3294 9.96 19.7694 9.8C19.2227 9.62667 18.6227 9.54 17.9694 9.54ZM39.337 21C39.1904 20.52 39.0237 20.0267 38.837 19.52C38.6637 19.0133 38.4904 18.5067 38.317 18H32.917C32.7437 18.5067 32.5637 19.0133 32.377 19.52C32.2037 20.0267 32.0437 20.52 31.897 21H28.657C29.177 19.5067 29.6704 18.1267 30.137 16.86C30.6037 15.5933 31.057 14.4 31.497 13.28C31.9504 12.16 32.3904 11.1 32.817 10.1C33.257 9.08667 33.7104 8.1 34.177 7.14H37.157C37.6104 8.1 38.057 9.08667 38.497 10.1C38.937 11.1 39.377 12.16 39.817 13.28C40.2704 14.4 40.7304 15.5933 41.197 16.86C41.6637 18.1267 42.157 19.5067 42.677 21H39.337ZM35.597 10.28C35.5304 10.48 35.4304 10.7533 35.297 11.1C35.1637 11.4467 35.0104 11.8467 34.837 12.3C34.6637 12.7533 34.4704 13.2533 34.257 13.8C34.057 14.3467 33.8504 14.92 33.637 15.52H37.577C37.3637 14.92 37.157 14.3467 36.957 13.8C36.757 13.2533 36.5637 12.7533 36.377 12.3C36.2037 11.8467 36.0504 11.4467 35.917 11.1C35.7837 10.7533 35.677 10.48 35.597 10.28ZM52.9558 7.14C53.1958 7.58 53.4691 8.12667 53.7758 8.78C54.0958 9.42 54.4224 10.12 54.7558 10.88C55.1024 11.6267 55.4424 12.3933 55.7758 13.18C56.1091 13.9667 56.4224 14.7067 56.7158 15.4C57.0091 14.7067 57.3224 13.9667 57.6558 13.18C57.9891 12.3933 58.3224 11.6267 58.6558 10.88C59.0024 10.12 59.3291 9.42 59.6358 8.78C59.9558 8.12667 60.2358 7.58 60.4758 7.14H63.3158C63.4491 8.06 63.5691 9.09333 63.6758 10.24C63.7958 11.3733 63.8958 12.56 63.9758 13.8C64.0691 15.0267 64.1491 16.26 64.2158 17.5C64.2958 18.74 64.3624 19.9067 64.4158 21H61.3758C61.3358 19.6533 61.2824 18.1867 61.2158 16.6C61.1491 15.0133 61.0491 13.4133 60.9158 11.8C60.6758 12.36 60.4091 12.98 60.1158 13.66C59.8224 14.34 59.5291 15.02 59.2358 15.7C58.9558 16.38 58.6824 17.0333 58.4158 17.66C58.1491 18.2733 57.9224 18.8 57.7358 19.24H55.5558C55.3691 18.8 55.1424 18.2733 54.8758 17.66C54.6091 17.0333 54.3291 16.38 54.0358 15.7C53.7558 15.02 53.4691 14.34 53.1758 13.66C52.8824 12.98 52.6158 12.36 52.3758 11.8C52.2424 13.4133 52.1424 15.0133 52.0758 16.6C52.0091 18.1867 51.9558 19.6533 51.9158 21H48.8758C48.9291 19.9067 48.9891 18.74 49.0558 17.5C49.1358 16.26 49.2158 15.0267 49.2958 13.8C49.3891 12.56 49.4891 11.3733 49.5958 10.24C49.7158 9.09333 49.8424 8.06 49.9758 7.14H52.9558ZM72.0297 21V7.14H81.3897V9.76H75.1497V12.48H80.6897V15.04H75.1497V18.38H81.8497V21H72.0297Z" fill="white"/>
</svg>
